# xmcd
#
# Track frame offsets: 
#        182
#        33670
#        59510
#        76025
#        99852
#        119217
#        146620
#
# Disc length: 2603 seconds
#
# Revision: 6
# Processed by: cddbd v1.5.2PL0 Copyright (c) Steve Scherf et al.
# Submitted via: ExactAudioCopyFreeDBPlugin 1.0
#
DISCID=5c0a2907
DTITLE=Aretha Franklin - Amazing Grace - Disc 1
DYEAR=1972
DGENRE=Gospel
TTITLE0=Mary, don't you weep
TTITLE1=Precious Lord, take my hand - You've got a friend
TTITLE2=Old landmark
TTITLE3=Give yourself to Jesus
TTITLE4=How I got over
TTITLE5=What a friend we have in Jesus
TTITLE6=Amazing grace
EXTD=YEAR: 1972
EXTT0=
EXTT1=
EXTT2=
EXTT3=
EXTT4=
EXTT5=
EXTT6=
PLAYORDER=
